<?xml version="1.0" encoding="UTF-8"?>
<svg width="302px" height="295px" viewBox="0 0 302 295" version="1.1" xmlns="http://www.w3.org/2000/svg" xmlns:xlink="http://www.w3.org/1999/xlink">
    <title>Untitled</title>
    <g id="Page-1" stroke="none" stroke-width="1" fill="none" fill-rule="evenodd">
        <g id="ascending_reversed" transform="translate(151.000000, 147.500000) scale(-1, 1) rotate(180.000000) translate(-151.000000, -147.500000) " fill="#000000" fill-rule="nonzero">
            <path d="M149.365,259.736 L10,259.736 C4.477,259.736 0,264.213 0,269.736 L0,279.736 C0,285.259 4.477,289.736 10,289.736 L149.365,289.736 C154.887,289.736 159.365,285.259 159.365,279.736 L159.365,269.736 C159.365,264.213 154.888,259.736 149.365,259.736 Z" id="Path"></path>
            <path d="M10,226.736 L130.586,226.736 C136.108,226.736 140.586,222.259 140.586,216.736 L140.586,206.736 C140.586,201.213 136.108,196.736 130.586,196.736 L10,196.736 C4.477,196.736 0,201.213 0,206.736 L0,216.736 C0,222.259 4.477,226.736 10,226.736 Z" id="Path"></path>
            <path d="M10,163.736 L111.805,163.736 C117.327,163.736 121.805,159.259 121.805,153.736 L121.805,143.736 C121.805,138.213 117.327,133.736 111.805,133.736 L10,133.736 C4.477,133.736 0,138.213 0,143.736 L0,153.736 C0,159.259 4.477,163.736 10,163.736 Z" id="Path"></path>
            <path d="M10,93.736 L93.025,93.736 C98.547,93.736 103.025,89.259 103.025,83.736 L103.025,73.736 C103.025,68.213 98.547,63.736 93.025,63.736 L10,63.736 C4.477,63.736 0,68.213 0,73.736 L0,83.736 C0,89.259 4.477,93.736 10,93.736 Z" id="Path"></path>
            <path d="M10,30.736 L74.244,30.736 C79.766,30.736 84.244,26.259 84.244,20.736 L84.244,10.736 C84.244,5.213 79.766,0.736 74.244,0.736 L10,0.736 C4.477,0.736 0,5.213 0,10.736 L0,20.736 C0,26.259 4.477,30.736 10,30.736 Z" id="Path"></path>
            <path d="M298.29,213.877 L291.22,206.806 C289.345,204.931 286.801,203.877 284.149,203.877 C281.497,203.877 278.954,204.931 277.078,206.806 L242.684,241.199 L242.684,15.736 C242.684,10.213 238.207,5.736 232.684,5.736 L222.684,5.736 C217.162,5.736 212.684,10.213 212.684,15.736 L212.684,241.198 L178.29,206.805 C176.414,204.929 173.871,203.876 171.219,203.876 C168.567,203.876 166.023,204.93 164.148,206.805 L157.078,213.876 C153.173,217.781 153.173,224.113 157.078,228.018 L220.613,291.554 C222.489,293.429 225.032,294.483 227.684,294.483 C230.336,294.483 232.879,293.429 234.755,291.554 L298.29,228.018 C302.195,224.113 302.195,217.782 298.29,213.877 Z" id="Path"></path>
        </g>
    </g>
</svg>